<?xml version="1.0" standalone="no"?>
<!DOCTYPE svg PUBLIC "-//W3C//DTD SVG 20010904//EN"
 "http://www.w3.org/TR/2001/REC-SVG-20010904/DTD/svg10.dtd">
<svg version="1.0" xmlns="http://www.w3.org/2000/svg"
 width="500.000000pt" height="250.000000pt" viewBox="0 0 500.000000 250.000000"
 preserveAspectRatio="xMidYMid meet">

<g transform="translate(0.000000,250.000000) scale(0.100000,-0.100000)"
fill="#000000" stroke="none">
<path d="M1925 1926 c-40 -17 -104 -90 -143 -163 -34 -64 -83 -228 -103 -339
-18 -109 -8 -248 24 -317 43 -95 86 -105 206 -51 l53 24 29 -25 c61 -51 148
-42 212 21 67 68 95 195 63 287 -8 20 -10 37 -6 37 11 0 110 -80 110 -90 0 -4
-7 -27 -15 -50 -17 -48 -20 -117 -6 -153 14 -37 61 -76 100 -83 24 -5 46 -1
77 15 l44 21 0 -21 c0 -11 -20 -41 -45 -65 -157 -158 -211 -289 -150 -363 34
-39 97 -50 159 -27 76 29 111 99 131 261 13 105 15 111 46 135 17 14 55 43 83
66 l52 41 32 -28 c83 -75 211 -31 265 90 27 60 33 155 14 209 -8 23 -11 42 -7
42 12 0 60 -39 116 -92 l51 -50 7 27 c6 22 -1 37 -34 80 -131 170 -355 178
-443 16 -21 -38 -30 -71 -34 -127 -6 -75 -6 -75 -62 -132 l-55 -57 -4 29 c-3
27 2 75 28 246 5 37 6 79 2 95 -7 25 -14 30 -44 33 -20 2 -44 12 -53 23 -10
10 -28 19 -39 19 -41 -1 -103 -38 -146 -87 l-43 -50 -37 37 c-70 70 -181 104
-266 81 -104 -28 -162 -111 -171 -242 l-6 -80 -38 -20 c-49 -25 -65 -24 -73 4
-15 57 -4 89 93 279 113 220 141 299 141 399 0 56 -4 73 -20 89 -23 23 -52 25
-95 6z m15 -137 c0 -56 -40 -170 -100 -287 l-51 -97 7 60 c16 159 93 365 136
365 4 0 8 -18 8 -41z m670 -373 c0 -35 -56 -258 -69 -276 -40 -55 -81 -29 -81
52 0 84 86 228 136 228 8 0 14 -2 14 -4z m-447 -24 c56 -61 8 -272 -64 -280
-58 -7 -85 87 -55 190 26 91 81 132 119 90z m890 0 c56 -61 8 -272 -64 -280
-58 -7 -85 87 -55 190 26 91 81 132 119 90z m-494 -554 c-11 -76 -26 -122 -50
-152 -22 -29 -56 -34 -65 -11 -11 27 89 215 115 215 4 0 4 -24 0 -52z"/>
</g>
</svg>
